<svg width="417" height="233" viewBox="0 0 417 233" fill="none" xmlns="http://www.w3.org/2000/svg">
<g clip-path="url(#clip0_358_7703)">
<path fill-rule="evenodd" clip-rule="evenodd" d="M352.75 219.56C351.29 226.85 344.68 232.52 336.65 232.52C328.62 232.52 322.01 226.85 320.56 219.56C319.66 215.03 321.45 209.78 326.31 204.34L336.65 192.78L347 204.34C351.86 209.78 353.65 215.03 352.75 219.56Z" fill="#0B95F8"/>
<path d="M162.58 31.29L127.14 144.91H103.3L81.18 69.37L57.77 144.91H35.43L0 31.08L24.06 31.29L47.47 106.62L71.1 31.29H91.72L115.34 106.62L138.75 31.29H162.59H162.58Z" fill="#20294C"/>
<path d="M199.77 31.29V144.91H175.5V31.29H199.77Z" fill="#20294C"/>
<path d="M333.35 156.12C328.48 154.74 324.88 150.39 324.88 145.19L324.83 145.17V80.9C324.83 51.57 300.47 27.71 270.53 27.71C240.59 27.71 216.23 51.57 216.23 80.9V145.36H240.79V80.9C240.79 64.84 254.13 51.77 270.52 51.77C286.91 51.77 300.26 64.84 300.26 80.9V145.36H300.32C300.41 163.79 314.92 178.9 333.34 180.5V156.12H333.35Z" fill="#20294C"/>
<path d="M372.89 31.53V0H348.26V145.18H348.25C348.25 150.33 344.74 154.63 339.96 156.06V180.48C358.34 178.8 372.8 163.65 372.81 145.21C372.86 145.21 372.89 145.21 372.89 145.21V55.31H416.04V31.53H372.89Z" fill="#20294C"/>
</g>
<defs>
<clipPath id="clip0_358_7703">
<rect width="416.04" height="232.52" fill="white"/>
</clipPath>
</defs>
</svg>
